<svg id="Capa_1" enable-background="new 0 0 512 512" height="512" viewBox="0 0 512 512" width="512" xmlns="http://www.w3.org/2000/svg"><g><g><path d="m470.727 62.973h-3.469v-16.827c0-5.522-4.478-10-10-10h-51.564c-5.522 0-10 4.478-10 10v16.827h-45.419v-16.827c0-5.522-4.478-10-10-10h-51.565c-5.522 0-10 4.478-10 10v16.827h-45.42v-16.827c0-5.522-4.478-10-10-10h-51.564c-5.522 0-10 4.478-10 10v16.827h-45.419v-16.827c0-5.522-4.478-10-10-10h-51.565c-5.522 0-10 4.478-10 10v16.827h-3.469c-22.757 0-41.273 18.515-41.273 41.273v335.423c0 19.953 16.217 36.186 36.149 36.186h439.702c19.933 0 36.148-16.232 36.148-36.186v-335.423c.001-22.758-18.515-41.273-41.272-41.273zm-450.727 96.911h472v229.444c0 8.924-7.244 16.185-16.148 16.185h-439.704c-8.904 0-16.148-7.261-16.148-16.185zm395.693-103.738h31.564v44.552h-31.564zm-116.983 0h31.564v44.552h-31.564zm-116.984 0h31.564v44.552h-31.564zm-116.984 0h31.564v44.552h-31.564zm-23.469 26.827h3.469v27.725c0 5.522 4.478 10 10 10h51.564c5.522 0 10-4.478 10-10v-27.725h45.419v27.725c0 5.522 4.478 10 10 10h51.564c5.522 0 10-4.478 10-10v-27.725h45.42v27.725c0 5.522 4.478 10 10 10h51.564c5.522 0 10-4.478 10-10v-27.725h45.419v27.725c0 5.522 4.478 10 10 10h51.564c5.522 0 10-4.478 10-10v-27.725h3.469c11.73 0 21.273 9.543 21.273 21.273v35.637h-471.998v-35.637c0-11.73 9.543-21.273 21.273-21.273zm434.579 372.881h-439.703c-8.904 0-16.149-7.261-16.149-16.186v-17.972c4.863 2.441 10.348 3.816 16.148 3.816h439.703c5.8 0 11.286-1.375 16.148-3.816v17.972c.001 8.926-7.243 16.186-16.147 16.186z"/><path d="m279.711 251.811h156.724c5.522 0 10-4.478 10-10s-4.478-10-10-10h-156.724c-5.522 0-10 4.478-10 10s4.477 10 10 10z"/><path d="m279.711 344.193h156.724c5.522 0 10-4.478 10-10s-4.478-10-10-10h-156.724c-5.522 0-10 4.478-10 10s4.477 10 10 10z"/><path d="m91.332 344.921c16.584 16.591 38.628 25.748 62.07 25.783h.114c23.509 0 45.605-9.154 62.228-25.783 16.647-16.653 25.8-38.8 25.771-62.357v-.004c-.035-23.449-9.188-45.5-25.771-62.089-16.58-16.588-38.622-25.742-62.065-25.778h-.138c-23.501 0-45.589 9.151-62.209 25.778-16.65 16.656-25.801 38.805-25.767 62.364v.001c.037 23.449 9.187 45.499 25.767 62.085zm-5.112-52.723c16.219-1.926 31.429-8.282 44.205-18.48l32.087 32.1c-10.197 12.783-16.552 28.002-18.474 44.23-14.549-2.025-27.99-8.691-38.561-19.266-10.572-10.575-17.234-24.024-19.257-38.584zm90.55 27.884 17.25 17.257c-8.79 6.547-18.954 10.823-29.769 12.528 1.701-10.82 5.974-20.991 12.519-29.785zm31.388 3.112-17.251-17.258c8.79-6.548 18.956-10.824 29.772-12.526-1.702 10.82-5.977 20.99-12.521 29.784zm12.703-49.998c-16.222 1.924-31.434 8.28-44.21 18.478l-32.087-32.1c10.196-12.781 16.551-27.999 18.477-44.227 14.55 2.024 27.99 8.688 38.559 19.262 10.573 10.579 17.237 24.028 19.261 38.587zm-90.555-27.885-17.25-17.257c8.791-6.548 18.956-10.824 29.771-12.527-1.703 10.82-5.977 20.99-12.521 29.784zm-31.388-3.113 17.25 17.258c-8.789 6.547-18.953 10.823-29.769 12.528 1.701-10.821 5.975-20.991 12.519-29.786z"/><path d="m436.435 278.077h-33.155c-5.522 0-10 4.478-10 10s4.478 10 10 10h33.155c5.522 0 10-4.478 10-10s-4.478-10-10-10z"/><path d="m279.711 298.077h33.155c5.522 0 10-4.478 10-10s-4.478-10-10-10h-33.155c-5.522 0-10 4.478-10 10s4.477 10 10 10z"/><path d="m366.569 282.529c-2.348-3.592-6.958-5.243-11.062-4.065-4.009 1.151-6.964 4.793-7.227 8.963-.252 4.002 1.96 7.84 5.557 9.613 3.898 1.921 8.731 1.05 11.712-2.117 3.144-3.339 3.561-8.586 1.02-12.394z"/></g></g></svg>